<svg width="256" height="256" viewBox="0 0 256 256" fill="none" xmlns="http://www.w3.org/2000/svg">
<circle cx="128" cy="128" r="128" fill="url(#paint0_linear_86_99)"/>
<mask id="mask0_86_99" style="mask-type:alpha" maskUnits="userSpaceOnUse" x="0" y="0" width="256" height="256">
<circle cx="128" cy="128" r="128" fill="url(#paint1_linear_86_99)"/>
</mask>
<g mask="url(#mask0_86_99)">
<path d="M47.8223 100.046C41.5742 127.699 39.444 213.673 38.7305 275.94C38.3044 313.131 70.0827 342.274 107.15 339.216C146.534 335.967 178.837 297.136 178.244 257.623C178.09 247.355 178 235.747 178 222.638C178 163.231 173.907 108.771 170.959 77.2412C169.291 59.4075 158.889 43.7291 143.385 34.7599C121.979 22.3766 95.0387 25.1595 76.6166 41.6569L74 44.0001C74 44.0001 58.0001 55.0001 47.8223 100.046Z" fill="url(#paint2_linear_86_99)"/>
<mask id="mask1_86_99" style="mask-type:alpha" maskUnits="userSpaceOnUse" x="37" y="27" width="142" height="313">
<path d="M46.0001 103.5C37.7881 134.219 36.7521 216.885 37.2005 276.933C37.4766 313.914 69.3174 342.337 106.174 339.296C146.068 336.005 178.809 296.666 178.229 256.641C178.084 246.616 178 235.331 178 222.637C178 163.521 173.947 109.303 171.002 77.7048C169.312 59.5774 158.749 43.6341 143 34.4998L139.591 32.8244C123.248 24.7912 104.005 25.2748 88.0859 34.1188C70.4424 43.9207 56.8547 62.205 51.7575 81.7341C50.1811 87.7737 48.2837 94.9572 46.0001 103.5Z" fill="url(#paint3_linear_86_99)"/>
</mask>
<g mask="url(#mask1_86_99)">
<path d="M99.4999 7.5C83.4999 26.5 70.9858 84.6658 66.9998 132.5C63.9999 168.5 59 243 59 268" stroke="url(#paint4_linear_86_99)" stroke-width="20"/>
<path d="M130.5 21C119.5 55 109.67 108.395 106 163.5C100.006 253.5 101 273.5 101 292" stroke="url(#paint5_linear_86_99)" stroke-width="25"/>
<path d="M170.5 41.5C158.411 79 153.002 129.81 151 185C147.5 281.5 151 293.5 150.09 318" stroke="url(#paint6_linear_86_99)" stroke-width="30"/>
<path d="M117.382 110.422C119.534 91.506 125.578 66.3531 142.88 47.3103C160.182 28.2676 182.535 38.3399 197.874 44.5375" stroke="url(#paint7_linear_86_99)" stroke-opacity="0.6" stroke-width="150" stroke-linecap="round"/>
</g>
<path d="M210.5 107.5C210.5 107.5 217.354 132.066 206 146.5C197.413 157.416 174.634 159.653 161.5 157.5" stroke="url(#paint8_linear_86_99)" stroke-width="61" stroke-linecap="round"/>
</g>
<mask id="mask2_86_99" style="mask-type:alpha" maskUnits="userSpaceOnUse" x="130" y="76" width="114" height="113">
<path d="M210.5 107.5C210.5 107.5 217.354 132.066 206 146.5C197.413 157.416 174.634 159.653 161.5 157.5" stroke="url(#paint9_linear_86_99)" stroke-width="61" stroke-linecap="round"/>
</mask>
<g mask="url(#mask2_86_99)">
<path d="M215.5 77C223.5 96 229.5 122.5 215.5 147.5C201.5 172.5 163 171.5 137 171.5" stroke="url(#paint10_linear_86_99)" stroke-width="25" stroke-linecap="round"/>
<path d="M209.479 113.566C214.98 99.5632 224.925 81.874 242.974 72.2041C261.023 62.5343 277.519 76.8642 288.98 86.1454" stroke="url(#paint11_linear_86_99)" stroke-opacity="0.87" stroke-width="112" stroke-linecap="round"/>
</g>
<defs>
<linearGradient id="paint0_linear_86_99" x1="128" y1="0" x2="128" y2="256" gradientUnits="userSpaceOnUse">
<stop offset="0.3125" stop-color="#52CF9B"/>
<stop offset="1" stop-color="#DCFFB8"/>
</linearGradient>
<linearGradient id="paint1_linear_86_99" x1="128" y1="0" x2="128" y2="256" gradientUnits="userSpaceOnUse">
<stop stop-color="#C3D667"/>
<stop offset="1" stop-color="#3EB344"/>
</linearGradient>
<linearGradient id="paint2_linear_86_99" x1="97.2213" y1="347.971" x2="73.0091" y2="19.8881" gradientUnits="userSpaceOnUse">
<stop offset="0.158654" stop-color="#244A0D"/>
<stop offset="1" stop-color="#6CCA35"/>
</linearGradient>
<linearGradient id="paint3_linear_86_99" x1="96.3298" y1="347.924" x2="74.9551" y2="24.733" gradientUnits="userSpaceOnUse">
<stop stop-color="#487F28"/>
<stop offset="1" stop-color="#82E549"/>
</linearGradient>
<linearGradient id="paint4_linear_86_99" x1="79.25" y1="268" x2="79.25" y2="7.5" gradientUnits="userSpaceOnUse">
<stop offset="0.1875" stop-color="#234A0D"/>
<stop offset="1" stop-color="#54B01F"/>
</linearGradient>
<linearGradient id="paint5_linear_86_99" x1="115.719" y1="292" x2="115.719" y2="21" gradientUnits="userSpaceOnUse">
<stop offset="0.153846" stop-color="#234A0D"/>
<stop offset="1" stop-color="#54B01F"/>
</linearGradient>
<linearGradient id="paint6_linear_86_99" x1="159.954" y1="318" x2="159.954" y2="41.5" gradientUnits="userSpaceOnUse">
<stop offset="0.461538" stop-color="#234A0D"/>
<stop offset="1" stop-color="#54B01F"/>
</linearGradient>
<linearGradient id="paint7_linear_86_99" x1="138.061" y1="118.777" x2="172.242" y2="34.1757" gradientUnits="userSpaceOnUse">
<stop stop-color="#81FF38" stop-opacity="0"/>
<stop offset="0.576923" stop-color="white" stop-opacity="0.9"/>
</linearGradient>
<linearGradient id="paint8_linear_86_99" x1="181" y1="102.5" x2="187.025" y2="158.238" gradientUnits="userSpaceOnUse">
<stop offset="0.182692" stop-color="#82E548"/>
<stop offset="1" stop-color="#35631A"/>
</linearGradient>
<linearGradient id="paint9_linear_86_99" x1="187.025" y1="107.5" x2="187.025" y2="158.238" gradientUnits="userSpaceOnUse">
<stop stop-color="#487F28"/>
<stop offset="1" stop-color="#82E548"/>
</linearGradient>
<linearGradient id="paint10_linear_86_99" x1="180.449" y1="77" x2="180.449" y2="171.505" gradientUnits="userSpaceOnUse">
<stop stop-color="#54B01F"/>
<stop offset="1" stop-color="#234A0D"/>
</linearGradient>
<linearGradient id="paint11_linear_86_99" x1="224.93" y1="126.078" x2="269.83" y2="70.6323" gradientUnits="userSpaceOnUse">
<stop stop-color="#81FF38" stop-opacity="0"/>
<stop offset="0.544107" stop-color="white"/>
</linearGradient>
</defs>
</svg>
