<svg width="256" height="256" viewBox="0 0 256 256" fill="none" xmlns="http://www.w3.org/2000/svg">
<mask id="mask0_146_162" style="mask-type:alpha" maskUnits="userSpaceOnUse" x="0" y="0" width="256" height="256">
<rect width="256" height="256" fill="white"/>
</mask>
<g mask="url(#mask0_146_162)">
<circle cx="128" cy="128" r="128" fill="url(#paint0_radial_146_162)"/>
<path d="M25.3382 217.564C29.0103 219.028 32.6824 220.492 36.3545 221.955C42.9093 224.568 49.464 227.18 56.0188 229.792C122.839 264.099 226.902 166.095 169.813 70.733C166.737 65.4422 163.409 60.5032 159.655 55.6828C137.21 78.4911 114.765 101.299 92.3195 124.108C94.1855 124.823 95.9215 125.571 97.6118 126.45C110.994 132.482 121.431 150.946 115.522 173.36C110.301 195.159 88.7435 215.774 58.3526 216.63C51.2992 216.829 44.2459 217.029 37.1925 217.229C33.2411 217.341 29.2896 217.453 25.3382 217.564Z" fill="url(#paint1_linear_146_162)" fill-opacity="0.6"/>
<mask id="mask1_146_162" style="mask-type:alpha" maskUnits="userSpaceOnUse" x="25" y="55" width="162" height="182">
<path d="M25.3382 217.564C29.0103 219.028 32.6825 220.492 36.3546 221.955C42.9093 224.568 49.4641 227.18 56.0188 229.792C122.839 264.099 226.902 166.095 169.813 70.733C166.738 65.4422 163.409 60.5032 159.655 55.6828C137.21 78.4911 114.765 101.299 92.3195 124.108C94.1856 124.823 95.9216 125.571 97.6118 126.45C110.994 132.482 121.431 150.946 115.522 173.36C110.301 195.159 88.7436 215.774 58.3526 216.63C51.2993 216.829 44.2459 217.029 37.1926 217.229C33.2411 217.341 29.2897 217.453 25.3382 217.564Z" fill="url(#paint2_linear_146_162)"/>
</mask>
<g mask="url(#mask1_146_162)">
<path d="M19 220.101C23.1632 221.868 27.3264 223.634 31.4897 225.4C38.3075 228.292 45.1254 231.185 51.9432 234.077C127.552 275.322 245.557 164.578 181.252 59.4068C177.831 53.624 174.149 48.2518 169.988 42.9943C147.456 65.717 124.924 88.4397 102.393 111.162C104.677 112.303 106.78 113.477 108.818 114.821C125.22 124.576 135.597 148.886 126.383 175.367C118.039 201.307 90.2388 223.587 54.748 221.731C47.3497 221.394 39.9514 221.056 32.553 220.719C28.0354 220.513 23.5177 220.307 19 220.101Z" fill="url(#paint3_linear_146_162)" fill-opacity="0.5"/>
</g>
<g filter="url(#filter0_d_146_162)">
<path d="M109.139 202.085L107.326 207.499L109.752 211.67L105.003 210.818L100.535 214.373L102.348 208.959L99.9221 204.787L104.671 205.64L109.139 202.085Z" fill="url(#paint4_linear_146_162)"/>
<path d="M107.09 207.419L107.054 207.527L107.11 207.625L109.265 211.329L105.047 210.572L104.935 210.552L104.847 210.622L101.04 213.652L102.585 209.038L102.62 208.931L102.564 208.833L100.408 205.128L104.627 205.886L104.739 205.906L104.827 205.835L108.635 202.805L107.09 207.419Z" stroke="white" stroke-opacity="0.32" stroke-width="0.5"/>
</g>
<g filter="url(#filter1_d_146_162)">
<path d="M163.104 176.343L162.6 182.703L165.709 186.127L161.181 187.07L157.851 192.511L158.356 186.152L155.247 182.728L159.774 181.785L163.104 176.343Z" fill="url(#paint5_linear_146_162)"/>
<path d="M162.351 182.683L162.342 182.791L162.415 182.871L165.229 185.971L161.13 186.825L161.024 186.848L160.968 186.939L158.183 191.489L158.605 186.171L158.613 186.064L158.541 185.984L155.725 182.883L159.826 182.029L159.931 182.007L159.988 181.916L162.772 177.365L162.351 182.683Z" stroke="white" stroke-opacity="0.32" stroke-width="0.5"/>
</g>
<g filter="url(#filter2_d_146_162)">
<path d="M86.6427 127.395L91.9604 130.919L96.4622 129.86L95.0919 134.277L98.2367 139.828L92.919 136.303L88.4173 137.362L89.7876 132.945L86.6427 127.395Z" fill="url(#paint6_linear_146_162)"/>
<path d="M91.8224 131.128L91.9122 131.187L92.0174 131.162L96.0936 130.204L94.8533 134.203L94.8214 134.307L94.874 134.4L97.5034 139.041L93.0571 136.095L92.9673 136.036L92.8621 136.06L88.7851 137.019L90.0262 133.019L90.0581 132.916L90.0054 132.822L87.3754 128.18L91.8224 131.128Z" stroke="white" stroke-opacity="0.32" stroke-width="0.5"/>
</g>
<g filter="url(#filter3_d_146_162)">
<path d="M121.445 134.965L126.98 142.131L133.958 142.69L129.513 148.097L130.822 157.057L125.286 149.891L118.309 149.332L122.754 143.925L121.445 134.965Z" fill="url(#paint7_linear_146_162)"/>
<path d="M126.683 142.359L126.785 142.491L126.95 142.504L133.212 143.006L129.223 147.86L129.117 147.987L129.142 148.152L130.245 155.697L125.584 149.662L125.482 149.531L125.317 149.518L119.053 149.016L123.043 144.162L123.149 144.034L123.125 143.87L122.022 136.324L126.683 142.359Z" stroke="white" stroke-opacity="0.32" stroke-width="0.75"/>
</g>
<g filter="url(#filter4_d_146_162)">
<path d="M186.907 87.1598L190.045 92.7142L194.537 93.8145L191.311 97.1279L191.593 103.501L188.455 97.9468L183.963 96.8465L187.189 93.5331L186.907 87.1598Z" fill="url(#paint8_linear_146_162)"/>
<path d="M189.61 92.9599L189.717 93.1487L189.926 93.2002L193.569 94.092L190.953 96.7787L190.802 96.9336L190.811 97.1504L191.001 101.436L188.891 97.7011L188.784 97.5124L188.574 97.4608L184.93 96.5693L187.548 93.8823L187.698 93.7274L187.689 93.5106L187.499 89.224L189.61 92.9599Z" stroke="white" stroke-opacity="0.32"/>
</g>
<g filter="url(#filter5_d_146_162)">
<path d="M133.557 29.1975L139.331 36.915L148.357 37.532L141.417 43.3368L141.283 52.9739L135.509 45.2564L126.483 44.6394L133.423 38.8347L133.557 29.1975Z" fill="url(#paint9_linear_146_162)"/>
<path d="M138.931 37.2146L139.068 37.3979L139.297 37.4138L147.083 37.9461L141.097 42.953L140.921 43.1005L140.918 43.3296L140.803 51.4972L135.91 44.9568L135.772 44.7736L135.543 44.7576L127.756 44.2257L133.743 39.2185L133.919 39.0709L133.923 38.8418L134.037 30.6733L138.931 37.2146Z" stroke="white" stroke-opacity="0.32"/>
</g>
<g filter="url(#filter6_d_146_162)">
<path d="M151.714 76.4241L156.316 82.6907L163.747 83.2581L157.903 87.8841L157.593 95.6525L152.991 89.386L145.56 88.8186L151.403 84.1925L151.714 76.4241Z" fill="url(#paint10_linear_146_162)"/>
<path d="M155.912 82.9863L156.049 83.1714L156.278 83.1892L162.434 83.6597L157.593 87.4925L157.413 87.6344L157.404 87.864L157.149 94.2037L153.394 89.0898L153.258 88.9047L153.029 88.8879L146.873 88.4173L151.714 84.5845L151.894 84.4417L151.903 84.2121L152.156 77.8718L155.912 82.9863Z" stroke="white" stroke-opacity="0.32"/>
</g>
<g filter="url(#filter7_d_146_162)">
<path d="M139.095 173.484L138.588 188.006L152.242 192.976L138.274 196.981L137.767 211.503L129.642 199.457L115.674 203.462L124.62 192.011L116.494 179.965L130.149 184.935L139.095 173.484Z" fill="url(#paint11_linear_146_162)"/>
<path d="M138.088 187.989L138.076 188.351L150.626 192.919L138.137 196.501L137.787 196.601L137.775 196.964L137.321 209.946L130.056 199.177L129.853 198.876L129.504 198.976L117.016 202.556L125.014 192.32L125.237 192.033L125.034 191.732L117.769 180.961L130.319 185.528L130.543 185.243L138.542 175.004L138.088 187.989Z" stroke="white" stroke-opacity="0.28"/>
</g>
<g filter="url(#filter8_d_146_162)">
<path d="M177.789 102.692L186.902 126.432L212.296 125.101L192.534 141.104L201.647 164.844L180.32 150.994L160.558 166.997L167.139 142.435L145.813 128.585L171.207 127.254L177.789 102.692Z" fill="url(#paint12_linear_146_162)"/>
<path d="M177.789 102.692L186.902 126.432L212.296 125.101L192.534 141.104L201.647 164.844L180.32 150.994L160.558 166.997L167.139 142.435L145.813 128.585L171.207 127.254L177.789 102.692Z" fill="url(#paint13_linear_146_162)"/>
<path d="M186.435 126.611L186.565 126.95L210.785 125.681L192.219 140.715L191.937 140.944L192.067 141.283L200.628 163.586L180.592 150.574L180.288 150.377L180.005 150.605L161.439 165.64L167.622 142.565L167.716 142.213L167.411 142.015L147.376 129.004L171.596 127.735L171.69 127.384L177.873 104.307L186.435 126.611Z" stroke="white" stroke-opacity="0.28"/>
</g>
<g filter="url(#filter9_d_146_162)">
<path d="M106.702 28.5177L123.377 61.5574L159.66 55.6838L133.62 82.1438L150.356 115.017L118.12 98.1438L92.3203 124.114L97.563 87.6977L64.9351 70.8136L101.054 65.0929L106.702 28.5177Z" fill="url(#paint14_linear_146_162)"/>
<path d="M106.702 28.5177L123.377 61.5574L159.66 55.6838L133.62 82.1438L150.356 115.017L118.12 98.1438L92.3203 124.114L97.563 87.6977L64.9351 70.8136L101.054 65.0929L106.702 28.5177Z" fill="url(#paint15_linear_146_162)"/>
<path d="M122.93 61.7822L123.095 62.109L123.457 62.0508L158.233 56.4212L133.264 81.7928L133.011 82.0494L133.175 82.3705L149.198 113.846L118.353 97.7012L118.026 97.5295L117.766 97.7912L93.0299 122.689L98.0578 87.7694L98.1089 87.4172L97.7932 87.2536L66.517 71.0691L101.492 65.5296L101.548 65.1688L106.958 30.1343L122.93 61.7822Z" stroke="white" stroke-opacity="0.28"/>
</g>
</g>
<defs>
<filter id="filter0_d_146_162" x="89.9221" y="192.085" width="29.8298" height="32.2874" filterUnits="userSpaceOnUse" color-interpolation-filters="sRGB">
<feFlood flood-opacity="0" result="BackgroundImageFix"/>
<feColorMatrix in="SourceAlpha" type="matrix" values="0 0 0 0 0 0 0 0 0 0 0 0 0 0 0 0 0 0 127 0" result="hardAlpha"/>
<feOffset/>
<feGaussianBlur stdDeviation="5"/>
<feComposite in2="hardAlpha" operator="out"/>
<feColorMatrix type="matrix" values="0 0 0 0 1 0 0 0 0 0.75 0 0 0 0 0.954167 0 0 0 1 0"/>
<feBlend mode="normal" in2="BackgroundImageFix" result="effect1_dropShadow_146_162"/>
<feBlend mode="normal" in="SourceGraphic" in2="effect1_dropShadow_146_162" result="shape"/>
</filter>
<filter id="filter1_d_146_162" x="145.247" y="166.344" width="30.4616" height="36.1677" filterUnits="userSpaceOnUse" color-interpolation-filters="sRGB">
<feFlood flood-opacity="0" result="BackgroundImageFix"/>
<feColorMatrix in="SourceAlpha" type="matrix" values="0 0 0 0 0 0 0 0 0 0 0 0 0 0 0 0 0 0 127 0" result="hardAlpha"/>
<feOffset/>
<feGaussianBlur stdDeviation="5"/>
<feComposite in2="hardAlpha" operator="out"/>
<feColorMatrix type="matrix" values="0 0 0 0 1 0 0 0 0 0.75 0 0 0 0 0.954167 0 0 0 1 0"/>
<feBlend mode="normal" in2="BackgroundImageFix" result="effect1_dropShadow_146_162"/>
<feBlend mode="normal" in="SourceGraphic" in2="effect1_dropShadow_146_162" result="shape"/>
</filter>
<filter id="filter2_d_146_162" x="76.6428" y="117.395" width="31.5939" height="32.4331" filterUnits="userSpaceOnUse" color-interpolation-filters="sRGB">
<feFlood flood-opacity="0" result="BackgroundImageFix"/>
<feColorMatrix in="SourceAlpha" type="matrix" values="0 0 0 0 0 0 0 0 0 0 0 0 0 0 0 0 0 0 127 0" result="hardAlpha"/>
<feOffset/>
<feGaussianBlur stdDeviation="5"/>
<feComposite in2="hardAlpha" operator="out"/>
<feColorMatrix type="matrix" values="0 0 0 0 1 0 0 0 0 0.75 0 0 0 0 0.954167 0 0 0 1 0"/>
<feBlend mode="normal" in2="BackgroundImageFix" result="effect1_dropShadow_146_162"/>
<feBlend mode="normal" in="SourceGraphic" in2="effect1_dropShadow_146_162" result="shape"/>
</filter>
<filter id="filter3_d_146_162" x="108.309" y="124.965" width="35.6486" height="42.0923" filterUnits="userSpaceOnUse" color-interpolation-filters="sRGB">
<feFlood flood-opacity="0" result="BackgroundImageFix"/>
<feColorMatrix in="SourceAlpha" type="matrix" values="0 0 0 0 0 0 0 0 0 0 0 0 0 0 0 0 0 0 127 0" result="hardAlpha"/>
<feOffset/>
<feGaussianBlur stdDeviation="5"/>
<feComposite in2="hardAlpha" operator="out"/>
<feColorMatrix type="matrix" values="0 0 0 0 1 0 0 0 0 0.75 0 0 0 0 0.954167 0 0 0 1 0"/>
<feBlend mode="normal" in2="BackgroundImageFix" result="effect1_dropShadow_146_162"/>
<feBlend mode="normal" in="SourceGraphic" in2="effect1_dropShadow_146_162" result="shape"/>
</filter>
<filter id="filter4_d_146_162" x="173.963" y="77.1597" width="30.5739" height="36.3416" filterUnits="userSpaceOnUse" color-interpolation-filters="sRGB">
<feFlood flood-opacity="0" result="BackgroundImageFix"/>
<feColorMatrix in="SourceAlpha" type="matrix" values="0 0 0 0 0 0 0 0 0 0 0 0 0 0 0 0 0 0 127 0" result="hardAlpha"/>
<feOffset/>
<feGaussianBlur stdDeviation="5"/>
<feComposite in2="hardAlpha" operator="out"/>
<feColorMatrix type="matrix" values="0 0 0 0 1 0 0 0 0 0.75 0 0 0 0 0.954167 0 0 0 1 0"/>
<feBlend mode="normal" in2="BackgroundImageFix" result="effect1_dropShadow_146_162"/>
<feBlend mode="normal" in="SourceGraphic" in2="effect1_dropShadow_146_162" result="shape"/>
</filter>
<filter id="filter5_d_146_162" x="116.483" y="19.1975" width="41.8743" height="43.7764" filterUnits="userSpaceOnUse" color-interpolation-filters="sRGB">
<feFlood flood-opacity="0" result="BackgroundImageFix"/>
<feColorMatrix in="SourceAlpha" type="matrix" values="0 0 0 0 0 0 0 0 0 0 0 0 0 0 0 0 0 0 127 0" result="hardAlpha"/>
<feOffset/>
<feGaussianBlur stdDeviation="5"/>
<feComposite in2="hardAlpha" operator="out"/>
<feColorMatrix type="matrix" values="0 0 0 0 1 0 0 0 0 0.75 0 0 0 0 0.954167 0 0 0 1 0"/>
<feBlend mode="normal" in2="BackgroundImageFix" result="effect1_dropShadow_146_162"/>
<feBlend mode="normal" in="SourceGraphic" in2="effect1_dropShadow_146_162" result="shape"/>
</filter>
<filter id="filter6_d_146_162" x="135.56" y="66.4241" width="38.1875" height="39.2285" filterUnits="userSpaceOnUse" color-interpolation-filters="sRGB">
<feFlood flood-opacity="0" result="BackgroundImageFix"/>
<feColorMatrix in="SourceAlpha" type="matrix" values="0 0 0 0 0 0 0 0 0 0 0 0 0 0 0 0 0 0 127 0" result="hardAlpha"/>
<feOffset/>
<feGaussianBlur stdDeviation="5"/>
<feComposite in2="hardAlpha" operator="out"/>
<feColorMatrix type="matrix" values="0 0 0 0 1 0 0 0 0 0.75 0 0 0 0 0.954167 0 0 0 1 0"/>
<feBlend mode="normal" in2="BackgroundImageFix" result="effect1_dropShadow_146_162"/>
<feBlend mode="normal" in="SourceGraphic" in2="effect1_dropShadow_146_162" result="shape"/>
</filter>
<filter id="filter7_d_146_162" x="107.674" y="165.484" width="52.5686" height="54.019" filterUnits="userSpaceOnUse" color-interpolation-filters="sRGB">
<feFlood flood-opacity="0" result="BackgroundImageFix"/>
<feColorMatrix in="SourceAlpha" type="matrix" values="0 0 0 0 0 0 0 0 0 0 0 0 0 0 0 0 0 0 127 0" result="hardAlpha"/>
<feOffset/>
<feGaussianBlur stdDeviation="4"/>
<feComposite in2="hardAlpha" operator="out"/>
<feColorMatrix type="matrix" values="0 0 0 0 1 0 0 0 0 1 0 0 0 0 1 0 0 0 0.6 0"/>
<feBlend mode="normal" in2="BackgroundImageFix" result="effect1_dropShadow_146_162"/>
<feBlend mode="normal" in="SourceGraphic" in2="effect1_dropShadow_146_162" result="shape"/>
</filter>
<filter id="filter8_d_146_162" x="137.813" y="94.6917" width="82.4827" height="80.3054" filterUnits="userSpaceOnUse" color-interpolation-filters="sRGB">
<feFlood flood-opacity="0" result="BackgroundImageFix"/>
<feColorMatrix in="SourceAlpha" type="matrix" values="0 0 0 0 0 0 0 0 0 0 0 0 0 0 0 0 0 0 127 0" result="hardAlpha"/>
<feOffset/>
<feGaussianBlur stdDeviation="4"/>
<feComposite in2="hardAlpha" operator="out"/>
<feColorMatrix type="matrix" values="0 0 0 0 1 0 0 0 0 1 0 0 0 0 1 0 0 0 0.6 0"/>
<feBlend mode="normal" in2="BackgroundImageFix" result="effect1_dropShadow_146_162"/>
<feBlend mode="normal" in="SourceGraphic" in2="effect1_dropShadow_146_162" result="shape"/>
</filter>
<filter id="filter9_d_146_162" x="56.9351" y="20.5176" width="110.725" height="111.596" filterUnits="userSpaceOnUse" color-interpolation-filters="sRGB">
<feFlood flood-opacity="0" result="BackgroundImageFix"/>
<feColorMatrix in="SourceAlpha" type="matrix" values="0 0 0 0 0 0 0 0 0 0 0 0 0 0 0 0 0 0 127 0" result="hardAlpha"/>
<feOffset/>
<feGaussianBlur stdDeviation="4"/>
<feComposite in2="hardAlpha" operator="out"/>
<feColorMatrix type="matrix" values="0 0 0 0 1 0 0 0 0 1 0 0 0 0 1 0 0 0 0.6 0"/>
<feBlend mode="normal" in2="BackgroundImageFix" result="effect1_dropShadow_146_162"/>
<feBlend mode="normal" in="SourceGraphic" in2="effect1_dropShadow_146_162" result="shape"/>
</filter>
<radialGradient id="paint0_radial_146_162" cx="0" cy="0" r="1" gradientUnits="userSpaceOnUse" gradientTransform="translate(128 128) rotate(90) scale(128)">
<stop stop-color="#BC54C3"/>
<stop offset="0.850962" stop-color="#09264C"/>
<stop offset="0.961538" stop-color="#001229"/>
</radialGradient>
<linearGradient id="paint1_linear_146_162" x1="200.49" y1="78.8146" x2="101.312" y2="236.114" gradientUnits="userSpaceOnUse">
<stop offset="0.206731" stop-color="#F4FF8D"/>
<stop offset="0.538462" stop-color="#F8FFB9" stop-opacity="0.9"/>
<stop offset="0.918269" stop-color="#F8FFB9" stop-opacity="0"/>
</linearGradient>
<linearGradient id="paint2_linear_146_162" x1="200.49" y1="78.8146" x2="101.313" y2="236.114" gradientUnits="userSpaceOnUse">
<stop offset="0.206731" stop-color="#F4FF8D"/>
<stop offset="0.538462" stop-color="#F8FFB9" stop-opacity="0.9"/>
<stop offset="0.918269" stop-color="#F8FFB9" stop-opacity="0"/>
</linearGradient>
<linearGradient id="paint3_linear_146_162" x1="219.911" y1="65.3898" x2="103.408" y2="241.957" gradientUnits="userSpaceOnUse">
<stop offset="0.206731" stop-color="#F4FF8D"/>
<stop offset="0.538462" stop-color="#F8FFB9" stop-opacity="0.9"/>
<stop offset="0.918269" stop-color="#F8FFB9" stop-opacity="0"/>
</linearGradient>
<linearGradient id="paint4_linear_146_162" x1="109.139" y1="202.085" x2="100.535" y2="214.373" gradientUnits="userSpaceOnUse">
<stop stop-color="#8334CD"/>
<stop offset="1" stop-color="#5BA2FF"/>
</linearGradient>
<linearGradient id="paint5_linear_146_162" x1="163.104" y1="176.343" x2="157.851" y2="192.511" gradientUnits="userSpaceOnUse">
<stop stop-color="#D14FF5"/>
<stop offset="1" stop-color="#FFB151"/>
</linearGradient>
<linearGradient id="paint6_linear_146_162" x1="86.6427" y1="127.395" x2="98.2367" y2="139.828" gradientUnits="userSpaceOnUse">
<stop stop-color="#D14FF5"/>
<stop offset="1" stop-color="#FFB151"/>
</linearGradient>
<linearGradient id="paint7_linear_146_162" x1="121.445" y1="134.965" x2="130.822" y2="157.057" gradientUnits="userSpaceOnUse">
<stop stop-color="#3DFD4F"/>
<stop offset="1" stop-color="#44DDF8"/>
</linearGradient>
<linearGradient id="paint8_linear_146_162" x1="186.907" y1="87.1598" x2="191.593" y2="103.501" gradientUnits="userSpaceOnUse">
<stop stop-color="#AEF738"/>
<stop offset="1" stop-color="#3CFFDB"/>
</linearGradient>
<linearGradient id="paint9_linear_146_162" x1="133.557" y1="29.1975" x2="141.283" y2="52.9739" gradientUnits="userSpaceOnUse">
<stop stop-color="#F0DC44"/>
<stop offset="1" stop-color="#93F095"/>
</linearGradient>
<linearGradient id="paint10_linear_146_162" x1="151.714" y1="76.4241" x2="157.593" y2="95.6525" gradientUnits="userSpaceOnUse">
<stop stop-color="#96B7FF"/>
<stop offset="1" stop-color="#93F0BD"/>
</linearGradient>
<linearGradient id="paint11_linear_146_162" x1="139.095" y1="173.484" x2="125.414" y2="211.072" gradientUnits="userSpaceOnUse">
<stop stop-color="#2BFF00"/>
<stop offset="0.788462" stop-color="#00B7FF"/>
</linearGradient>
<linearGradient id="paint12_linear_146_162" x1="177.789" y1="102.692" x2="181.452" y2="172.596" gradientUnits="userSpaceOnUse">
<stop stop-color="#00FF15"/>
<stop offset="1" stop-color="#00E6FF"/>
</linearGradient>
<linearGradient id="paint13_linear_146_162" x1="159.181" y1="110.676" x2="201.215" y2="167.555" gradientUnits="userSpaceOnUse">
<stop offset="0.201923" stop-color="#FFE100"/>
<stop offset="1" stop-color="#00FFC3"/>
</linearGradient>
<linearGradient id="paint14_linear_146_162" x1="106.702" y1="28.5175" x2="122.659" y2="129.265" gradientUnits="userSpaceOnUse">
<stop offset="0.201923" stop-color="#FFE100"/>
<stop offset="1" stop-color="#00FFC3"/>
</linearGradient>
<linearGradient id="paint15_linear_146_162" x1="76.0099" y1="61.9871" x2="148.235" y2="108.445" gradientUnits="userSpaceOnUse">
<stop stop-color="#FF00F7"/>
<stop offset="1" stop-color="#FFDD00"/>
</linearGradient>
</defs>
</svg>
