<svg width="256" height="256" viewBox="0 0 256 256" fill="none" xmlns="http://www.w3.org/2000/svg">
<mask id="mask0_146_164" style="mask-type:alpha" maskUnits="userSpaceOnUse" x="0" y="0" width="256" height="256">
<rect width="256" height="256" fill="white"/>
</mask>
<g mask="url(#mask0_146_164)">
<circle cx="128" cy="128" r="128" fill="url(#paint0_linear_146_164)"/>
<path d="M125.676 158.433L124.026 143.993C123.934 143.189 124.336 142.409 125.043 142.016L141.27 133.022C141.981 132.628 142.859 132.703 143.493 133.213L153.669 141.398C172.417 156.479 182.792 179.64 181.563 203.67L180.613 222.226C180.536 223.734 178.88 224.616 177.585 223.837L161.542 214.19C141.575 202.184 128.322 181.58 125.676 158.433Z" fill="url(#paint1_linear_146_164)"/>
<path d="M103.407 144.545L116.634 138.522C117.371 138.187 117.833 137.441 117.805 136.632L117.157 118.091C117.129 117.279 116.611 116.564 115.848 116.284L103.591 111.777C81.0077 103.474 55.8119 106.51 35.8475 119.94L20.4311 130.31C19.178 131.153 19.2754 133.027 20.609 133.736L37.1415 142.519C57.7163 153.45 82.2026 154.199 103.407 144.545Z" fill="url(#paint2_linear_146_164)"/>
<path d="M102.085 142.159L114.202 134.132C114.876 133.685 115.754 133.689 116.424 134.141L131.805 144.516C132.479 144.97 132.811 145.788 132.644 146.583L129.971 159.367C125.045 182.918 109.119 202.677 87.15 212.491L70.1858 220.069C68.807 220.685 67.2691 219.609 67.3749 218.103L68.6871 199.428C70.3202 176.187 82.6612 155.025 102.085 142.159Z" fill="url(#paint3_linear_146_164)"/>
<path d="M154.885 116.01L142.768 124.037C142.094 124.483 141.216 124.48 140.545 124.027L125.165 113.653C124.491 113.198 124.159 112.381 124.325 111.585L126.999 98.8021C131.925 75.2505 147.851 55.492 169.82 45.678L186.784 38.0997C188.163 37.4838 189.701 38.5595 189.595 40.066L188.283 58.7408C186.65 81.9817 174.309 103.144 154.885 116.01Z" fill="url(#paint4_linear_146_164)"/>
<path d="M152.276 111.302L139.048 117.324C138.312 117.659 137.85 118.405 137.878 119.214L138.525 137.755C138.554 138.568 139.071 139.282 139.834 139.563L152.092 144.069C174.675 152.373 199.871 149.337 219.835 135.907L235.251 125.536C236.504 124.693 236.407 122.819 235.073 122.11L218.541 113.327C197.966 102.396 173.48 101.648 152.276 111.302Z" fill="url(#paint5_linear_146_164)"/>
<path d="M101.559 114.923L112.93 123.975C113.563 124.479 114.438 124.552 115.145 124.159L131.372 115.165C132.083 114.771 132.484 113.986 132.388 113.178L130.839 100.211C127.984 76.3195 113.841 55.2482 92.8108 43.5568L76.5717 34.5288C75.2518 33.795 73.626 34.7327 73.6002 36.2426L73.2798 54.9607C72.881 78.2555 83.3307 100.413 101.559 114.923Z" fill="url(#paint6_linear_146_164)"/>
<path d="M91.611 129.806L111.631 131.389C112.437 131.453 113.203 131.024 113.57 130.303L123.005 111.786C123.375 111.062 123.268 110.186 122.737 109.571L110.583 95.4964C94.8567 77.2856 71.3481 67.7258 47.3759 69.7929L22.563 71.9326C21.0585 72.0623 20.235 73.7488 21.0579 75.015L34.6363 95.9087C47.332 115.444 68.3853 127.97 91.611 129.806Z" fill="url(#paint7_linear_146_164)"/>
<path d="M91.6111 127.404L111.631 125.821C112.437 125.757 113.203 126.186 113.57 126.907L123.006 145.424C123.375 146.148 123.269 147.024 122.737 147.639L110.583 161.714C94.8567 179.925 71.3482 189.484 47.3759 187.417L22.563 185.278C21.0585 185.148 20.235 183.461 21.0579 182.195L34.6364 161.302C47.332 141.766 68.3854 129.24 91.6111 127.404Z" fill="url(#paint8_linear_146_164)"/>
<path d="M164.389 129.806L144.369 131.389C143.563 131.453 142.797 131.024 142.43 130.303L132.995 111.786C132.625 111.062 132.732 110.186 133.263 109.571L145.417 95.4964C161.143 77.2856 184.652 67.7258 208.624 69.7929L233.437 71.9326C234.942 72.0623 235.765 73.7488 234.942 75.015L221.364 95.9087C208.668 115.444 187.615 127.97 164.389 129.806Z" fill="url(#paint9_linear_146_164)"/>
<path d="M164.389 124.473L144.369 122.89C143.563 122.827 142.797 123.255 142.43 123.976L132.995 142.494C132.625 143.218 132.732 144.093 133.263 144.709L145.417 158.783C161.143 176.994 184.652 186.554 208.624 184.487L233.437 182.347C234.942 182.217 235.765 180.531 234.942 179.265L221.364 158.371C208.668 138.836 187.615 126.31 164.389 124.473Z" fill="url(#paint10_linear_146_164)"/>
<path d="M108.079 96.9103L115.757 115.467C116.067 116.215 116.796 116.702 117.605 116.702L138.388 116.702C139.201 116.702 139.933 116.21 140.24 115.457L147.262 98.238C156.348 75.9584 154.194 50.6721 141.469 30.2511L128.297 9.11389C127.499 7.83224 125.622 7.86414 124.868 9.1722L112.416 30.7564C100.773 50.9371 99.1709 75.3823 108.079 96.9103Z" fill="url(#paint11_linear_146_164)"/>
<path d="M108.079 159.054L115.757 140.498C116.067 139.75 116.796 139.262 117.605 139.262L138.388 139.262C139.201 139.262 139.933 139.754 140.24 140.507L147.262 157.726C156.348 180.006 154.194 205.292 141.469 225.713L128.297 246.85C127.499 248.132 125.622 248.1 124.868 246.792L112.416 225.208C100.773 205.027 99.1709 180.582 108.079 159.054Z" fill="url(#paint12_linear_146_164)"/>
<circle cx="128" cy="127" r="35" fill="url(#paint13_radial_146_164)"/>
</g>
<defs>
<linearGradient id="paint0_linear_146_164" x1="128" y1="0.000244141" x2="128" y2="256" gradientUnits="userSpaceOnUse">
<stop offset="0.0913462" stop-color="#AC2CB1"/>
<stop offset="0.966346" stop-color="#FC6B99"/>
</linearGradient>
<linearGradient id="paint1_linear_146_164" x1="139.389" y1="148.327" x2="182.281" y2="225.708" gradientUnits="userSpaceOnUse">
<stop offset="0.33" stop-color="#F05800"/>
<stop offset="1" stop-color="#E8C200"/>
</linearGradient>
<linearGradient id="paint2_linear_146_164" x1="127.547" y1="130.615" x2="36.7184" y2="177.321" gradientUnits="userSpaceOnUse">
<stop offset="0.34" stop-color="#F05800"/>
<stop offset="0.778846" stop-color="#E8C200"/>
</linearGradient>
<linearGradient id="paint3_linear_146_164" x1="110.057" y1="166.635" x2="81.195" y2="211.382" gradientUnits="userSpaceOnUse">
<stop offset="0.33" stop-color="#F05800"/>
<stop offset="1" stop-color="#E8C200"/>
</linearGradient>
<linearGradient id="paint4_linear_146_164" x1="126.655" y1="118.971" x2="161.005" y2="23.5994" gradientUnits="userSpaceOnUse">
<stop offset="0.346154" stop-color="#F05800"/>
<stop offset="1" stop-color="#E8C200"/>
</linearGradient>
<linearGradient id="paint5_linear_146_164" x1="130.04" y1="128.725" x2="208.29" y2="120.249" gradientUnits="userSpaceOnUse">
<stop offset="0.584148" stop-color="#F05800"/>
<stop offset="1" stop-color="#E8C200"/>
</linearGradient>
<linearGradient id="paint6_linear_146_164" x1="85.8164" y1="29.4219" x2="113.229" y2="125.022" gradientUnits="userSpaceOnUse">
<stop stop-color="#E8C200"/>
<stop offset="0.649038" stop-color="#F05800"/>
</linearGradient>
<linearGradient id="paint7_linear_146_164" x1="126.273" y1="129.582" x2="13.4681" y2="126.063" gradientUnits="userSpaceOnUse">
<stop offset="0.206731" stop-color="#FF7728"/>
<stop offset="0.577669" stop-color="#FFEA00"/>
</linearGradient>
<linearGradient id="paint8_linear_146_164" x1="54.4161" y1="164.287" x2="116.497" y2="141.801" gradientUnits="userSpaceOnUse">
<stop offset="0.0384615" stop-color="#FFEA00"/>
<stop offset="0.884615" stop-color="#FF7728"/>
</linearGradient>
<linearGradient id="paint9_linear_146_164" x1="131.651" y1="117.85" x2="215.942" y2="44.078" gradientUnits="userSpaceOnUse">
<stop offset="0.182692" stop-color="#FF7728"/>
<stop offset="0.735577" stop-color="#FFEA00"/>
</linearGradient>
<linearGradient id="paint10_linear_146_164" x1="209.863" y1="162.823" x2="129.695" y2="129.094" gradientUnits="userSpaceOnUse">
<stop stop-color="#FFEA00"/>
<stop offset="0.836538" stop-color="#FF7728"/>
</linearGradient>
<linearGradient id="paint11_linear_146_164" x1="140.153" y1="9.42812" x2="115.432" y2="116.509" gradientUnits="userSpaceOnUse">
<stop offset="0.394231" stop-color="#FFEA00"/>
<stop offset="1" stop-color="#FF7728"/>
</linearGradient>
<linearGradient id="paint12_linear_146_164" x1="128.229" y1="153.047" x2="128.229" y2="250.812" gradientUnits="userSpaceOnUse">
<stop offset="0.0817308" stop-color="#FF7728"/>
<stop offset="0.605769" stop-color="#FFEA00"/>
</linearGradient>
<radialGradient id="paint13_radial_146_164" cx="0" cy="0" r="1" gradientUnits="userSpaceOnUse" gradientTransform="translate(128 127) rotate(90) scale(35)">
<stop offset="0.197115" stop-color="#5D1919"/>
<stop offset="1" stop-color="#360A0A"/>
</radialGradient>
</defs>
</svg>
