<svg width="303" height="306" viewBox="0 0 303 306" fill="none" xmlns="http://www.w3.org/2000/svg">
<circle cx="150.833" cy="152.212" r="128" fill="url(#paint0_linear_99_38)"/>
<path d="M148.509 182.645L146.859 168.205C146.767 167.401 147.168 166.621 147.876 166.228L164.103 157.234C164.814 156.84 165.692 156.915 166.326 157.425L176.502 165.61C195.25 180.691 205.625 203.852 204.396 227.882L203.446 246.437C203.369 247.946 201.712 248.827 200.418 248.049L184.375 238.402C164.408 226.396 151.155 205.792 148.509 182.645Z" fill="url(#paint1_linear_99_38)"/>
<path d="M126.24 168.757L139.467 162.734C140.204 162.399 140.666 161.653 140.637 160.844L139.99 142.303C139.962 141.491 139.444 140.776 138.681 140.496L126.424 135.989C103.841 127.686 78.6449 130.722 58.6804 144.152L43.264 154.522C42.011 155.365 42.1084 157.239 43.442 157.948L59.9744 166.731C80.5492 177.662 105.036 178.41 126.24 168.757Z" fill="url(#paint2_linear_99_38)"/>
<path d="M124.918 166.37L137.035 158.344C137.709 157.897 138.587 157.901 139.257 158.353L154.638 168.728C155.312 169.182 155.644 170 155.477 170.795L152.804 183.578C147.878 207.13 131.952 226.889 109.983 236.703L93.0187 244.281C91.6399 244.897 90.102 243.821 90.2079 242.315L91.5201 223.64C93.1531 200.399 105.494 179.237 124.918 166.37Z" fill="url(#paint3_linear_99_38)"/>
<path d="M177.718 140.222L165.601 148.249C164.927 148.695 164.049 148.692 163.378 148.239L147.998 137.865C147.324 137.41 146.992 136.593 147.158 135.797L149.832 123.014C154.758 99.4624 170.684 79.7039 192.653 69.8899L209.617 62.3116C210.996 61.6957 212.534 62.7715 212.428 64.2779L211.116 82.9527C209.483 106.194 197.142 127.356 177.718 140.222Z" fill="url(#paint4_linear_99_38)"/>
<path d="M175.109 135.513L161.881 141.536C161.144 141.871 160.683 142.617 160.711 143.426L161.358 161.967C161.387 162.779 161.904 163.494 162.667 163.774L174.925 168.281C197.508 176.584 222.703 173.548 242.668 160.119L258.084 149.748C259.337 148.905 259.24 147.031 257.906 146.322L241.374 137.539C220.799 126.608 196.313 125.86 175.109 135.513Z" fill="url(#paint5_linear_99_38)"/>
<path d="M124.392 139.135L135.763 148.187C136.396 148.691 137.271 148.764 137.978 148.371L154.205 139.377C154.916 138.983 155.317 138.198 155.221 137.39L153.672 124.423C150.817 100.531 136.674 79.4601 115.644 67.7687L99.4046 58.7407C98.0848 58.0069 96.459 58.9446 96.4331 60.4545L96.1127 79.1726C95.714 102.467 106.164 124.625 124.392 139.135Z" fill="url(#paint6_linear_99_38)"/>
<path d="M114.444 154.018L134.464 155.601C135.27 155.665 136.036 155.236 136.403 154.515L145.838 135.998C146.207 135.274 146.101 134.398 145.57 133.783L133.416 119.708C117.69 101.498 94.1811 91.9377 70.2089 94.0048L45.396 96.1445C43.8914 96.2742 43.0679 97.9607 43.8908 99.2269L57.4693 120.121C70.165 139.656 91.2183 152.182 114.444 154.018Z" fill="url(#paint7_linear_99_38)"/>
<path d="M114.444 151.616L134.464 150.033C135.27 149.969 136.036 150.398 136.403 151.119L145.838 169.636C146.208 170.36 146.101 171.236 145.57 171.851L133.416 185.926C117.69 204.136 94.1811 213.696 70.2089 211.629L45.396 209.49C43.8914 209.36 43.0679 207.673 43.8908 206.407L57.4693 185.513C70.165 165.978 91.2183 153.452 114.444 151.616Z" fill="url(#paint8_linear_99_38)"/>
<path d="M187.222 154.018L167.202 155.601C166.396 155.665 165.63 155.236 165.263 154.515L155.827 135.998C155.458 135.274 155.565 134.398 156.096 133.783L168.25 119.708C183.976 101.498 207.485 91.9377 231.457 94.0048L256.27 96.1445C257.774 96.2742 258.598 97.9607 257.775 99.2269L244.197 120.121C231.501 139.656 210.448 152.182 187.222 154.018Z" fill="url(#paint9_linear_99_38)"/>
<path d="M187.222 148.685L167.202 147.102C166.396 147.038 165.63 147.467 165.263 148.188L155.827 166.705C155.458 167.43 155.565 168.305 156.096 168.921L168.25 182.995C183.976 201.206 207.485 210.766 231.457 208.699L256.27 206.559C257.774 206.429 258.598 204.743 257.775 203.476L244.197 182.583C231.501 163.047 210.448 150.522 187.222 148.685Z" fill="url(#paint10_linear_99_38)"/>
<path d="M130.912 121.122L138.59 139.679C138.9 140.426 139.629 140.914 140.438 140.914L161.221 140.914C162.034 140.914 162.766 140.422 163.073 139.669L170.095 122.45C179.181 100.17 177.027 74.884 164.302 54.463L151.13 33.3258C150.332 32.0442 148.455 32.0761 147.701 33.3841L135.249 54.9683C123.606 75.149 122.004 99.5943 130.912 121.122Z" fill="url(#paint11_linear_99_38)"/>
<path d="M130.912 183.266L138.59 164.709C138.9 163.962 139.629 163.474 140.438 163.474L161.221 163.474C162.034 163.474 162.766 163.966 163.073 164.719L170.095 181.938C179.181 204.218 177.027 229.504 164.302 249.925L151.13 271.062C150.332 272.344 148.455 272.312 147.701 271.004L135.249 249.42C123.606 229.239 122.004 204.794 130.912 183.266Z" fill="url(#paint12_linear_99_38)"/>
<circle cx="150.833" cy="151.212" r="35" fill="url(#paint13_radial_99_38)"/>
<defs>
<linearGradient id="paint0_linear_99_38" x1="150.833" y1="24.2122" x2="150.833" y2="280.212" gradientUnits="userSpaceOnUse">
<stop offset="0.0913462" stop-color="#AC2CB1"/>
<stop offset="0.966346" stop-color="#FC6B99"/>
</linearGradient>
<linearGradient id="paint1_linear_99_38" x1="162.222" y1="172.539" x2="205.114" y2="249.92" gradientUnits="userSpaceOnUse">
<stop offset="0.33" stop-color="#F05800"/>
<stop offset="1" stop-color="#E8C200"/>
</linearGradient>
<linearGradient id="paint2_linear_99_38" x1="150.38" y1="154.827" x2="59.5513" y2="201.533" gradientUnits="userSpaceOnUse">
<stop offset="0.34" stop-color="#F05800"/>
<stop offset="0.778846" stop-color="#E8C200"/>
</linearGradient>
<linearGradient id="paint3_linear_99_38" x1="132.89" y1="190.846" x2="104.028" y2="235.594" gradientUnits="userSpaceOnUse">
<stop offset="0.33" stop-color="#F05800"/>
<stop offset="1" stop-color="#E8C200"/>
</linearGradient>
<linearGradient id="paint4_linear_99_38" x1="149.488" y1="143.183" x2="183.838" y2="47.8114" gradientUnits="userSpaceOnUse">
<stop offset="0.346154" stop-color="#F05800"/>
<stop offset="1" stop-color="#E8C200"/>
</linearGradient>
<linearGradient id="paint5_linear_99_38" x1="152.873" y1="152.937" x2="231.123" y2="144.461" gradientUnits="userSpaceOnUse">
<stop offset="0.584148" stop-color="#F05800"/>
<stop offset="1" stop-color="#E8C200"/>
</linearGradient>
<linearGradient id="paint6_linear_99_38" x1="108.649" y1="53.6338" x2="136.062" y2="149.234" gradientUnits="userSpaceOnUse">
<stop stop-color="#E8C200"/>
<stop offset="0.649038" stop-color="#F05800"/>
</linearGradient>
<linearGradient id="paint7_linear_99_38" x1="149.106" y1="153.794" x2="36.3011" y2="150.275" gradientUnits="userSpaceOnUse">
<stop offset="0.206731" stop-color="#FF7728"/>
<stop offset="0.577669" stop-color="#FFEA00"/>
</linearGradient>
<linearGradient id="paint8_linear_99_38" x1="77.2491" y1="188.499" x2="139.33" y2="166.013" gradientUnits="userSpaceOnUse">
<stop offset="0.0384615" stop-color="#FFEA00"/>
<stop offset="0.884615" stop-color="#FF7728"/>
</linearGradient>
<linearGradient id="paint9_linear_99_38" x1="154.484" y1="142.062" x2="238.775" y2="68.2899" gradientUnits="userSpaceOnUse">
<stop offset="0.182692" stop-color="#FF7728"/>
<stop offset="0.735577" stop-color="#FFEA00"/>
</linearGradient>
<linearGradient id="paint10_linear_99_38" x1="232.696" y1="187.035" x2="152.528" y2="153.306" gradientUnits="userSpaceOnUse">
<stop stop-color="#FFEA00"/>
<stop offset="0.836538" stop-color="#FF7728"/>
</linearGradient>
<linearGradient id="paint11_linear_99_38" x1="162.986" y1="33.64" x2="138.265" y2="140.721" gradientUnits="userSpaceOnUse">
<stop offset="0.394231" stop-color="#FFEA00"/>
<stop offset="1" stop-color="#FF7728"/>
</linearGradient>
<linearGradient id="paint12_linear_99_38" x1="151.062" y1="177.259" x2="151.062" y2="275.024" gradientUnits="userSpaceOnUse">
<stop offset="0.0817308" stop-color="#FF7728"/>
<stop offset="0.605769" stop-color="#FFEA00"/>
</linearGradient>
<radialGradient id="paint13_radial_99_38" cx="0" cy="0" r="1" gradientUnits="userSpaceOnUse" gradientTransform="translate(150.833 151.212) rotate(90) scale(35)">
<stop offset="0.197115" stop-color="#5D1919"/>
<stop offset="1" stop-color="#360A0A"/>
</radialGradient>
</defs>
</svg>
