<?xml version="1.0" encoding="UTF-8"?><svg id="Layer_1" xmlns="http://www.w3.org/2000/svg" viewBox="0 0 128 128"><defs><style>.cls-1{fill:#c9c9e5;stroke:#4f4ea1;stroke-miterlimit:10;stroke-width:2px;}</style></defs><path class="cls-1" d="M68.39,9.15l15.63,28.72c.72,1.32,2,2.25,3.48,2.52l32.14,5.99c3.89.73,5.44,5.48,2.71,8.35l-22.48,23.74c-1.03,1.09-1.52,2.59-1.33,4.09l4.23,32.42c.51,3.93-3.53,6.86-7.11,5.16l-29.53-14.05c-1.36-.65-2.94-.65-4.3,0l-29.53,14.05c-3.58,1.7-7.62-1.23-7.11-5.16l4.23-32.42c.19-1.49-.29-2.99-1.33-4.09L5.64,54.74c-2.72-2.88-1.18-7.63,2.71-8.35l32.14-5.99c1.48-.28,2.76-1.2,3.48-2.52l15.63-28.72c1.89-3.48,6.89-3.48,8.78,0Z"/></svg>