<?xml version="1.0" encoding="UTF-8"?>
<svg xmlns="http://www.w3.org/2000/svg" version="1.1" xmlns:xlink="http://www.w3.org/1999/xlink" viewBox="0 0 128 128">
  <!-- Generator: Adobe Illustrator 29.8.2, SVG Export Plug-In . SVG Version: 2.1.1 Build 3)  -->
  <defs>
    <style>
      .st0, .st1 {
        stroke: #414042;
        stroke-miterlimit: 10;
      }

      .st0, .st2 {
        fill: #bcbec0;
      }

      .st3 {
        fill: #fff;
      }

      .st4 {
        fill: none;
      }

      .st5 {
        clip-path: url(#clippath-1);
      }

      .st1, .st6 {
        fill: #414042;
      }

      .st7 {
        display: none;
      }

      .st8 {
        fill: url(#linear-gradient);
      }

      .st9 {
        clip-path: url(#clippath);
      }
    </style>
    <linearGradient id="linear-gradient" x1="64" y1="2" x2="64" y2="130" gradientTransform="translate(0 130) scale(1 -1)" gradientUnits="userSpaceOnUse">
      <stop offset="0" stop-color="#56a7dd"/>
      <stop offset="1" stop-color="#5050a2"/>
    </linearGradient>
    <clipPath id="clippath">
      <circle class="st4" cx="64" cy="64" r="64"/>
    </clipPath>
    <clipPath id="clippath-1">
      <circle class="st4" cx="64" cy="64" r="64"/>
    </clipPath>
  </defs>
  <g id="icon_blank" class="st7">
    <g id="Layer_1">
      <circle class="st8" cx="64" cy="64" r="64"/>
      <g class="st9">
        <g>
          <ellipse class="st2" cx="64" cy="47.52" rx="27.2" ry="26.75"/>
          <ellipse class="st2" cx="64" cy="134.32" rx="30" ry="58.05"/>
        </g>
      </g>
    </g>
  </g>
  <g id="cat_draft_bg">
    <g id="Layer_11" data-name="Layer_1">
      <circle class="st8" cx="64" cy="64" r="64"/>
      <g class="st5">
        <g>
          <path class="st2" d="M64,20.77c15.02,0,26.35,12.06,26.35,26.84s-11.33,26.66-26.35,26.66-26.25-12.02-26.25-26.79,11.22-26.71,26.25-26.71Z"/>
          <ellipse class="st2" cx="64" cy="134.32" rx="30" ry="58.05"/>
        </g>
      </g>
    </g>
  </g>
  <g id="cat_draft">
    <path class="st3" d="M68.33,58.42c-.12-9.08.33-16.34,6.78-16.34s8.36,6.66,8.19,16.34"/>
    <path class="st2" d="M39.35,54.35c-3.36.34-5.24.82-8.04,1.45-.38.09,4.86,9.23,10.62,12.78,3.47,2.14,9.67,5.5,23.02,5.66"/>
    <path class="st3" d="M60.37,58.42c.12-9.08-.33-16.34-6.78-16.34s-8.36,6.66-8.19,16.34"/>
    <path class="st6" d="M60.37,58.42c0-1.7.12-8.9-1.06-12-.7-1.82-2.01-2.4-3.63-2.4-4.04,0-4.71,11.69-4.71,14.39"/>
    <path class="st2" d="M40.53,16.07c17.5,6.85,15.92,7.39,15.28,8.83-2.27,5.1-10.42,16.42-14.46,14.62-4.42-1.98-5.39-19.13-4.02-23.83.22-.76,2.06-.06,3.19.38Z"/>
    <path class="st2" d="M88.7,16.07c-17.5,6.85-15.92,7.39-15.28,8.83,2.27,5.1,10.42,16.42,14.46,14.62,4.42-1.98,5.39-19.13,4.02-23.83-.22-.76-2.06-.06-3.19.38Z"/>
    <path class="st2" d="M55.45,22.31c1.32-2.55,2.62-4.92,6.42-6.13,1.18-.38,1,1.16.71,2.15-.27.91,3.55-2.06,6.26-2.46,1.95-.29,1.64,1.66.85,3.74-.1.25,3.7-5.99,4.99-.09.44,2.04-.79,3.41-1.2,3.61-6.41,3.29-12.29,3.16-15.7,1.33-.78-.42-2.68-1.49-2.33-2.16Z"/>
    <path class="st0" d="M70.5,66.95c-.14,1.1-.84,2.03-1.78,2.34-1.28.42-2.81.27-4.1-1-1.45,1.34-3.15,1.42-4.42,1-.95-.31-1.64-1.24-1.78-2.34"/>
    <path class="st6" d="M68.32,58.41c0-1.7-.12-8.9,1.06-12,.7-1.82,2.01-2.4,3.63-2.4,4.04,0,4.71,11.69,4.71,14.39"/>
    <path class="st2" d="M89.6,54.37c3.36.34,5.24.82,8.04,1.45.38.09-4.86,9.23-10.62,12.78-3.47,2.14-9.67,5.5-23.02,5.66"/>
    <path class="st6" d="M64.52,65c-1.06.01-1.82-1.35-1.59-1.9.33-.83,3.09-.7,3.4,0,.25.56-.66,1.89-1.81,1.9Z"/>
    <path class="st1" d="M44.14,60.82l6.83.85"/>
    <path class="st1" d="M44.21,65.3l6.71-1.53"/>
    <ellipse class="st6" cx="56.16" cy="38.68" rx="2.14" ry="3.95" transform="translate(-5.42 67.98) rotate(-60)"/>
    <ellipse class="st6" cx="71.9" cy="38.68" rx="3.95" ry="2.14" transform="translate(-9.71 41.13) rotate(-30)"/>
    <path class="st1" d="M85.04,60.82l-6.83.85"/>
    <path class="st1" d="M84.98,65.3l-6.71-1.53"/>
  </g>
</svg>