<svg width="256" height="256" viewBox="0 0 256 256" fill="none" xmlns="http://www.w3.org/2000/svg">
<circle cx="128" cy="128" r="128" fill="#282828"/>
<path d="M150.909 45.8643L153.496 49.5303L157.744 48.085L195.356 35.291L194.812 75.0166L194.751 79.5029L199.036 80.8311L236.985 92.5879L213.194 124.407L210.508 128L213.194 131.593L236.985 163.411L199.036 175.169L194.751 176.497L194.812 180.983L195.356 220.708L157.744 207.915L153.496 206.47L150.909 210.136L128 242.594L105.091 210.136L102.504 206.47L98.2559 207.915L60.6426 220.708L61.1875 180.983L61.249 176.497L56.9639 175.169L19.0137 163.411L42.8057 131.593L45.4922 128L42.8057 124.407L19.0137 92.5879L56.9639 80.8311L61.249 79.5029L61.1875 75.0166L60.6426 35.291L98.2559 48.085L102.504 49.5303L105.091 45.8643L128 13.4053L150.909 45.8643Z" fill="#B9B9B9" stroke="#7A7A7A" stroke-width="12"/>
<ellipse cx="132.624" cy="180.115" rx="12.8783" ry="12.8783" fill="#282828"/>
<path d="M122.005 103.999L122.349 105.472C124.096 112.962 118.411 120.126 110.72 120.126C105.562 120.126 100.987 116.814 99.3769 111.914L98.1186 108.086C96.5971 101.856 97.2821 95.2919 100.057 89.5109L100.492 88.6053C102.368 84.6966 105.055 81.2324 108.374 78.4431L109.764 77.2748C113.441 74.1854 117.666 71.8165 122.22 70.2923L123.204 69.963C127.989 68.3613 133.073 67.856 138.08 68.4844C146.193 69.5028 153.658 73.4396 159.081 79.5595L160.301 80.936C162.768 83.7207 164.673 86.9568 165.91 90.4655C169.69 101.185 166.818 113.124 158.576 120.951L149.578 129.496C145.863 133.023 143.874 137.997 144.131 143.113L144.434 149.146C144.774 155.897 139.391 161.557 132.631 161.557C125.477 161.557 119.964 155.252 120.918 148.162L122.415 137.041C123.134 131.702 125.819 126.823 129.946 123.359L141.857 113.362C145.73 110.111 147.511 104.999 146.495 100.046L146.218 98.6934C144.842 91.9832 138.284 87.6612 131.575 89.0431C124.747 90.4497 120.421 97.2095 122.005 103.999Z" fill="#282828"/>
<ellipse cx="120.858" cy="176.586" rx="12.8783" ry="12.8783" fill="#7A7A7A" stroke="#CACACA" stroke-width="3"/>
<path d="M110.24 100.469L110.583 101.942C112.331 109.432 106.646 116.596 98.9549 116.596C93.7969 116.596 89.222 113.284 87.6113 108.384L86.3531 104.556C84.8316 98.3265 85.5166 91.7623 88.2915 85.9812L88.7262 85.0756C90.6023 81.167 93.2894 77.7028 96.6086 74.9135L97.9989 73.7452C101.675 70.6557 105.901 68.2869 110.455 66.7626L111.439 66.4333C116.224 64.8316 121.308 64.3263 126.315 64.9548C134.428 65.9731 141.893 69.9099 147.315 76.0299L148.535 77.4064C151.002 80.191 152.907 83.4271 154.145 86.9359C157.925 97.6551 155.052 109.595 146.81 117.422L137.812 125.966C134.098 129.494 132.108 134.467 132.366 139.583L132.669 145.616C133.008 152.368 127.625 158.028 120.865 158.028C113.712 158.028 108.198 151.722 109.152 144.633L110.649 133.512C111.368 128.172 114.054 123.293 118.181 119.829L130.091 109.832C133.965 106.581 135.745 101.47 134.729 96.5159L134.452 95.1638C133.076 88.4536 126.519 84.1315 119.81 85.5135C112.981 86.92 108.656 93.6798 110.24 100.469Z" fill="#7A7A7A" stroke="#CACACA" stroke-width="3"/>
</svg>
