<svg width="256" height="256" viewBox="0 0 256 256" fill="none" xmlns="http://www.w3.org/2000/svg">
<circle cx="128" cy="128" r="128" fill="#5A1B1B"/>
<path d="M138.007 34.2939L141.741 41.2432L147.44 35.7881L162.71 21.1719L166.474 41.9727L167.878 49.7354L174.983 46.3086L194.023 37.126L191.175 58.0713L190.111 65.8887L197.929 64.8252L218.873 61.9756L209.691 81.0166L206.265 88.1221L214.027 89.5264L234.827 93.2891L220.212 108.56L214.757 114.259L221.706 117.994L240.325 127.999L221.706 138.007L214.757 141.741L220.212 147.44L234.827 162.71L214.027 166.474L206.265 167.878L209.691 174.983L218.873 194.023L197.929 191.175L190.111 190.111L191.175 197.929L194.023 218.873L174.983 209.691L167.878 206.265L166.474 214.027L162.71 234.827L147.44 220.212L141.741 214.757L138.007 221.706L127.999 240.325L117.994 221.706L114.259 214.757L108.56 220.212L93.2891 234.827L89.5264 214.027L88.1221 206.265L81.0166 209.691L61.9756 218.873L64.8252 197.929L65.8887 190.111L58.0713 191.175L37.126 194.023L46.3086 174.983L49.7354 167.878L41.9727 166.474L21.1719 162.71L35.7881 147.44L41.2432 141.741L34.2939 138.007L15.6738 127.999L34.2939 117.994L41.2432 114.259L35.7881 108.56L21.1719 93.2891L41.9727 89.5264L49.7354 88.1221L46.3086 81.0166L37.126 61.9756L58.0713 64.8252L65.8887 65.8887L64.8252 58.0713L61.9756 37.126L81.0166 46.3086L88.1221 49.7354L89.5264 41.9727L93.2891 21.1719L108.56 35.7881L114.259 41.2432L117.994 34.2939L127.999 15.6738L138.007 34.2939Z" fill="#FFB0B0" stroke="#A54040" stroke-width="12"/>
<path d="M151.297 97.7532L152.26 104.304C152.892 108.603 155.739 112.254 159.754 113.916C165.607 116.337 172.342 113.938 175.345 108.361L176.012 107.122C177.407 104.532 177.944 101.566 177.547 98.6512L177.094 95.3295C176.651 92.082 175.553 88.9583 173.867 86.1478L173.473 85.4907C171.977 82.998 170.102 80.7541 167.914 78.8399L167.157 78.1778C163.726 75.1751 159.73 72.886 155.404 71.444L153.585 70.8377C149.934 69.6205 146.11 69 142.261 69C132.997 69 124.094 72.5898 117.421 79.0155L115.372 80.9892C113.271 83.0119 111.512 85.3607 110.161 87.9448L109.523 89.1643C103.478 100.729 107.128 114.991 117.986 122.229L133 134.5L144.598 144.943C148.723 148.658 150.019 154.59 147.82 159.686L147.608 160.178C146.421 162.929 144.216 165.115 141.454 166.278C137.361 168.001 132.645 167.239 129.303 164.315L129.043 164.088C126.768 162.097 125.316 159.331 124.969 156.328L124.514 152.38C124.044 148.311 121.774 144.667 118.329 142.452C112.276 138.561 104.243 140.031 99.9599 145.813L99.3345 146.657C97.186 149.557 96.1726 153.144 96.4853 156.739L96.7554 159.845C97.0206 162.895 97.8916 165.861 99.3174 168.57L99.6479 169.198C101.807 173.3 105.003 176.765 108.917 179.248L117.986 185C126.548 188.912 136.262 189.487 145.225 186.612L148.448 185.578C157.102 182.802 164.308 176.719 168.496 168.653C174.124 157.815 173.592 144.807 167.098 134.465L166.028 132.762C163.342 128.483 159.829 124.784 155.694 121.881L140.085 110.922C136.573 108.456 133.585 105.318 131.293 101.69C129.302 98.5373 129.936 94.4 132.78 91.9881L133.517 91.3629C135.07 90.0457 137.04 89.3226 139.076 89.3226H141.536C142.507 89.3226 143.472 89.4659 144.401 89.7479C148.055 90.857 150.741 93.9752 151.297 97.7532Z" fill="#5A1B1B"/>
<path d="M139.297 93.7532L140.26 100.304C140.892 104.603 143.739 108.254 147.754 109.916C153.607 112.337 160.342 109.938 163.345 104.361L164.012 103.122C165.407 100.532 165.944 97.566 165.547 94.6512L165.094 91.3295C164.651 88.082 163.553 84.9583 161.867 82.1478L161.473 81.4907C159.977 78.998 158.102 76.7541 155.914 74.8399L155.157 74.1778C151.726 71.1751 147.73 68.886 143.404 67.444L141.585 66.8377C137.934 65.6205 134.11 65 130.261 65C120.997 65 112.094 68.5898 105.421 75.0155L103.372 76.9892C101.271 79.0119 99.5116 81.3607 98.1608 83.9448L97.5233 85.1643C91.4781 96.729 95.1284 110.991 105.986 118.229L121 130.5L132.598 140.943C136.723 144.658 138.02 150.59 135.82 155.686L135.608 156.178C134.421 158.929 132.216 161.115 129.454 162.278C125.361 164.001 120.645 163.239 117.303 160.315L117.043 160.088C114.768 158.097 113.316 155.331 112.969 152.328L112.514 148.38C112.044 144.311 109.774 140.667 106.329 138.452C100.276 134.561 92.2429 136.031 87.9599 141.813L87.3345 142.657C85.186 145.557 84.1726 149.144 84.4853 152.739L84.7554 155.845C85.0206 158.895 85.8916 161.861 87.3175 164.57L87.648 165.198C89.807 169.3 93.0028 172.765 96.9174 175.248L105.986 181C114.548 184.912 124.262 185.487 133.225 182.612L136.448 181.578C145.102 178.802 152.308 172.719 156.496 164.653C162.124 153.815 161.592 140.807 155.098 130.465L154.028 128.762C151.342 124.483 147.829 120.784 143.694 117.881L128.085 106.922C124.573 104.456 121.585 101.318 119.293 97.6898C117.302 94.5373 117.936 90.4 120.78 87.9881L121.517 87.3629C123.07 86.0457 125.04 85.3226 127.076 85.3226H129.536C130.507 85.3226 131.472 85.4659 132.401 85.7479C136.055 86.857 138.741 89.9752 139.297 93.7532Z" fill="#D94040" stroke="white" stroke-width="3"/>
</svg>
