<svg width="256" height="334" viewBox="0 0 256 334" fill="none" xmlns="http://www.w3.org/2000/svg">
<mask id="mask0_203_33" style="mask-type:alpha" maskUnits="userSpaceOnUse" x="0" y="0" width="239" height="332">
<ellipse cx="195.282" cy="93.7311" rx="18.0513" ry="19.6923" fill="#D9D9D9"/>
<path d="M236.082 192.069L219.441 182.992C218.665 182.569 218.015 181.948 217.558 181.192L180.513 119.987L139.481 61.9768C137.819 59.6273 134.122 61.0987 134.529 63.9476C134.552 64.1104 134.59 64.2708 134.642 64.4268L142.769 88.8077L150.819 129.058C150.922 129.572 150.943 130.098 150.882 130.618L139.487 228.295L146.051 229.936L157.538 269.321L160.441 285.284C160.683 286.618 161.458 287.797 162.586 288.549L163.012 288.833C164.666 289.936 166.82 289.936 168.474 288.833C169.844 287.92 170.666 286.383 170.666 284.737V277.94C170.666 277.664 170.644 277.389 170.598 277.118L169.093 268.088C169.048 267.816 169.025 267.541 169.025 267.266V229.936L177.231 228.295L202.355 248.666C203.406 249.519 204.067 250.761 204.187 252.11L205.078 262.189C205.111 262.566 205.187 262.938 205.305 263.298L206.762 267.771C206.918 268.248 207.199 268.674 207.577 269.005C209.143 270.375 211.604 269.607 212.113 267.59L213.181 263.359C213.282 262.959 213.333 262.548 213.333 262.135V247.212C213.333 246.639 213.235 246.07 213.042 245.531L205.128 223.372L210.051 220.09L187.5 182.346L215.647 196.624C216.285 196.948 216.985 197.131 217.7 197.161L235.517 197.903C238.863 198.042 239.728 193.333 236.552 192.274C236.389 192.22 236.232 192.151 236.082 192.069Z" fill="#D9D9D9"/>
<path d="M124.718 58.399V53.2808C124.718 52.0566 123.726 51.0641 122.502 51.0641C121.828 51.0641 121.191 51.3702 120.771 51.8961L114.872 59.2693L64.0001 134.756L20.1892 202.907C19.869 203.405 19.3783 203.769 18.809 203.932L11.7312 205.954C9.40984 206.617 7.26604 207.791 5.45646 209.389C3.51385 211.105 2.01109 213.261 1.07429 215.678L0.605615 216.887C0.322279 217.617 0.890067 218.396 1.67258 218.35L26.5816 216.885C27.4441 216.834 28.2788 216.561 29.0042 216.092L55.795 198.756V209.432C55.795 209.97 55.7083 210.504 55.5384 211.013L28.1541 293.166C27.9841 293.676 27.8975 294.21 27.8975 294.747V302.923C27.8975 304.497 28.6385 305.979 29.8975 306.923L31.4616 308.096C33.2394 309.43 35.6838 309.43 37.4616 308.096L39.0257 306.923C40.2847 305.979 41.0257 304.497 41.0257 302.923V290.695C41.0257 289.604 41.3827 288.542 42.0423 287.673L77.1283 241.423L88.6156 244.705L90.023 250.335C90.1773 250.952 90.2124 251.593 90.1265 252.223L80.6661 321.6C80.5013 322.808 80.7837 324.034 81.46 325.049L84.3299 329.354C85.8104 331.574 88.7741 332.241 91.0627 330.868L92.7522 329.854C94.2582 328.95 95.1797 327.323 95.1797 325.567V311.261C95.1797 310.656 95.2893 310.056 95.5032 309.491L117.711 250.8C118.002 250.031 118.099 249.202 117.993 248.386L101.899 124.466C101.797 123.68 101.884 122.88 102.152 122.133L124.424 60.0884C124.619 59.5464 124.718 58.9749 124.718 58.399Z" fill="#D9D9D9"/>
<ellipse cx="47.5899" cy="105.218" rx="21.3334" ry="24.6154" fill="#D9D9D9"/>
<path d="M116.219 38.8772C115.22 36.5433 111.827 28.9407 108.308 24.8077C107.071 23.3546 104 22.5 104 22.5L102.601 22.2201C100.4 21.7801 98.1431 22.6425 96.7969 24.4374C95.4027 26.2965 95.2464 28.8062 96.3993 30.8238L96.5 31C96.5 31 98.3702 33.647 100.103 34.6539C104.311 37.0998 112.658 39.6594 114.922 40.3308C115.285 40.4384 115.67 40.3449 115.95 40.0901C116.288 39.7818 116.399 39.298 116.219 38.8772Z" fill="#D9D9D9"/>
<path d="M116.513 13C118.669 19.0678 123.253 27.1875 124.435 29.2425C124.611 29.5484 124.935 29.7308 125.288 29.7308C125.714 29.7308 126.09 29.4665 126.222 29.0616C127.068 26.4649 130.071 16.8606 130.5 10C130.591 8.54357 130.161 6.80373 129.632 5.27859C128.786 2.83415 126.479 1.30144 123.914 0.966484C119.741 0.421505 115.77 3.20656 115.758 7.41541C115.752 9.36905 115.938 11.3811 116.513 13Z" fill="#D9D9D9"/>
<path d="M154.5 18C149.96 20.9616 146.016 28.1961 144.798 30.589C144.558 31.0608 144.654 31.6236 145.021 32.0044C145.32 32.3136 145.751 32.4519 146.171 32.3604C148.58 31.8363 156.909 29.8179 162 26C162.939 25.296 163.765 24.463 164.461 23.642C166.18 21.6156 165.536 18.6931 163.476 17.0156C161.938 15.7638 159.853 15.3888 158.035 16.1807C156.836 16.7031 155.502 17.3465 154.5 18Z" fill="#D9D9D9"/>
</mask>
<g mask="url(#mask0_203_33)">
<rect y="-1.4487" width="246.154" height="334.769" fill="url(#paint0_linear_203_33)"/>
</g>
<defs>
<linearGradient id="paint0_linear_203_33" x1="123.077" y1="-1.4487" x2="123.077" y2="333.321" gradientUnits="userSpaceOnUse">
<stop stop-color="#4C49AF"/>
<stop offset="1" stop-color="#4DA9E7"/>
</linearGradient>
</defs>
</svg>
